<?xml version="1.0" standalone="no"?>
<!DOCTYPE svg PUBLIC "-//W3C//DTD SVG 20010904//EN"
 "http://www.w3.org/TR/2001/REC-SVG-20010904/DTD/svg10.dtd">
<svg version="1.0" xmlns="http://www.w3.org/2000/svg"
 width="300.000000pt" height="276.000000pt" viewBox="0 0 300.000000 276.000000"
 preserveAspectRatio="xMidYMid meet">
<metadata>
Created by potrace 1.10, written by Peter Selinger 2001-2011
</metadata>
<g transform="translate(0.000000,276.000000) scale(0.100000,-0.100000)"
fill="#8a2be2" stroke="none">
<path d="M1652 2653 c-12 -10 -74 -103 -138 -208 -65 -104 -134 -216 -153
-247 -20 -31 -85 -137 -145 -235 -60 -98 -131 -211 -158 -251 -26 -40 -48 -76
-48 -81 0 -4 28 -37 63 -72 34 -35 86 -90 115 -121 51 -55 72 -70 72 -49 0 6
27 52 59 103 33 51 90 140 126 198 37 58 99 157 140 220 138 216 250 394 254
405 2 5 22 35 43 66 81 120 75 145 -62 231 -98 61 -134 70 -168 41z m98 -38
c7 -8 16 -15 21 -15 21 0 109 -67 119 -92 13 -30 10 -39 -50 -128 -20 -30 -39
-62 -43 -70 -14 -36 -537 -846 -552 -855 -13 -8 -31 6 -100 80 -46 50 -84 95
-85 102 0 11 161 274 535 871 32 51 68 100 79 108 27 18 60 18 76 -1z"/>
<path d="M2465 2061 c-325 -116 -652 -319 -949 -591 -80 -73 -246 -245 -278
-290 l-31 -41 -46 53 c-45 52 -165 179 -312 330 -81 84 -100 92 -162 64 -28
-12 -106 -40 -147 -53 -10 -3 -4 -13 21 -36 98 -89 493 -509 600 -637 34 -41
66 -76 70 -78 4 -2 13 7 20 19 31 59 211 286 380 479 297 340 652 651 867 759
34 17 60 36 57 41 -3 6 -7 10 -8 10 -1 -1 -38 -14 -82 -29z m-215 -139 c0 -4
-8 -12 -18 -18 -47 -30 -242 -206 -377 -340 -199 -199 -384 -410 -552 -634
-77 -101 -72 -98 -106 -59 -118 136 -281 310 -467 502 -63 65 -115 125 -115
134 0 17 85 53 127 53 21 0 59 -35 200 -182 231 -244 236 -248 263 -248 17 0
42 19 82 62 191 205 333 335 499 459 55 41 107 79 115 84 9 6 43 28 75 49 61
40 253 146 267 146 4 0 7 -3 7 -8z"/>
<path d="M705 1089 c-57 -76 -66 -95 -57 -109 9 -16 0 -28 -66 -87 -42 -38
-97 -84 -122 -102 l-45 -32 -21 -107 c-54 -268 -76 -370 -89 -411 -8 -25 -15
-46 -15 -48 0 -9 29 -1 39 11 19 23 338 232 415 271 43 22 45 25 81 150 47
162 60 190 84 187 14 -2 24 4 30 20 5 13 21 40 35 61 14 21 26 42 26 47 0 5
-37 48 -82 96 -46 47 -93 99 -107 115 -13 16 -27 29 -31 29 -4 0 -37 -41 -75
-91z m169 -64 c76 -84 78 -86 66 -116 -7 -16 -29 -43 -50 -59 -42 -33 -57 -64
-100 -206 -17 -56 -39 -109 -50 -119 -26 -23 -193 -125 -198 -120 -9 9 24 54
74 101 66 62 72 99 24 144 -16 15 -30 33 -30 39 0 5 26 39 58 73 32 35 70 80
86 101 25 35 27 41 16 63 -8 13 -20 25 -29 26 -9 0 -23 1 -31 2 -26 2 -23 45
6 84 38 50 57 71 69 71 6 1 45 -38 89 -84z m-125 -99 c10 -11 6 -20 -17 -43
-16 -15 -58 -62 -93 -103 -35 -41 -83 -96 -107 -122 -34 -39 -41 -53 -36 -73
5 -19 -4 -40 -36 -90 -47 -72 -70 -96 -70 -73 0 19 57 289 65 309 3 8 35 36
71 62 73 54 73 52 -19 -76 -27 -37 -46 -71 -42 -75 8 -8 33 20 167 186 51 61
95 112 99 112 4 0 12 -6 18 -14z m-133 -294 c33 -21 22 -92 -14 -92 -10 0 -52
-46 -102 -112 -86 -114 -126 -158 -142 -158 -15 0 20 54 154 237 29 39 37 59
32 77 -8 35 42 69 72 48z"/>
<path d="M648 323 c-21 -9 -38 -20 -38 -25 0 -4 225 -8 516 -8 499 1 546 -1
603 -29 8 -4 16 -12 18 -17 2 -5 -249 -8 -643 -6 -642 3 -646 3 -690 -18 -24
-12 -44 -25 -44 -28 0 -4 354 -6 787 -4 704 2 793 1 830 -14 24 -8 45 -19 47
-22 2 -4 -403 -6 -900 -4 -497 2 -904 -1 -904 -5 0 -5 15 -17 34 -27 32 -17
86 -18 1030 -19 548 -1 996 0 996 3 0 3 -33 16 -72 30 -40 13 -86 30 -103 36
-16 7 -70 29 -120 48 -49 19 -143 55 -207 80 l-117 46 -493 -1 c-419 -1 -499
-3 -530 -16z"/>
</g>
</svg>
